#!OML:ASF H:\Dans Jumps\Project 1\Capture day 1\Session 1\subject.ASF
:FULLY-SPECIFIED
:DEGREES
503
root 0.520614 17.6486 2.31278 7.21148 -0.920202 -1.69527
lowerback 1.67592 -0.00962868 -0.551425
upperback 3.65703 -0.0471765 1.55108
thorax 2.81705 -0.0631648 1.90264
lowerneck -11.5524 -0.0807582 -1.82844
upperneck 35.154 -0.183286 1.51362
head 13.8629 -0.124933 0.903842
rclavicle 3.97569e-016 7.95139e-016
rhumerus -27.409 -15.9977 -78.5633
rradius 24.7749
rwrist 31.7522
rhand -19.0088 -26.6029
rfingers 7.12502
rthumb 7.29669 -56.457
lclavicle 3.97569e-016 7.95139e-016
lhumerus -24.5416 0.45385 85.5304
lradius 17.156
lwrist 4.90923
lhand -26.2827 -4.38501
lfingers 7.12502
lthumb 0.27271 25.5946
rfemur -19.3059 -2.87877 20.2845
rtibia 25.5736
rfoot -11.8664 -1.93093
rtoes 12.3937
lfemur -18.1188 8.64638 -17.8206
ltibia 23.4857
lfoot -9.55859 4.59348
ltoes -3.34481
504
root 0.519344 17.6501 2.31677 7.23217 -0.901974 -1.6909
lowerback 1.68691 -0.0167387 -0.565754
upperback 3.67335 -0.0566289 1.54472
thorax 2.82811 -0.0683467 1.9041
lowerneck -11.5549 -0.0803988 -1.82325
upperneck 35.177 -0.183058 1.51012
head 13.8739 -0.12478 0.901786
rclavicle -3.32964e-015 -1.37161e-014
rhumerus -27.7075 -16.143 -78.334
rradius 24.6527
rwrist 31.8836
rhand -18.9857 -26.6061
rfingers 7.12502
rthumb 7.31894 -56.4596
lclavicle -3.32964e-015 -1.37161e-014
lhumerus -24.7994 1.08024 85.3904
lradius 16.7979
lwrist 4.11409
lhand -26.1995 -4.34657
lfingers 7.12502
lthumb 0.353088 25.6329
rfemur -19.291 -2.88256 20.2848
rtibia 25.5354
rfoot -11.8633 -1.94718
rtoes 12.3919
lfemur -18.0978 8.64059 -17.8213
ltibia 23.4236
lfoot -9.54712 4.57601
ltoes -3.32414
505
root 0.518207 17.6517 2.32061 7.24643 -0.8737 -1.68808
lowerback 1.70044 -0.0297008 -0.576233
upperback 3.68893 -0.0738647 1.538
thorax 2.83727 -0.077288 1.90298
lowerneck -11.5636 -0.0766369 -1.81182
upperneck 35.2073 -0.177672 1.50147
head 13.8894 -0.122308 0.897406
rclavicle -4.07509e-015 4.96962e-015
rhumerus -27.9935 -16.2743 -78.1184
rradius 24.5278
rwrist 32.0325
rhand -18.9684 -26.5961
rfingers 7.12502
rthumb 7.33567 -56.4489
lclavicle -4.07509e-015 4.96962e-015
lhumerus -25.0564 1.68258 85.2513
lradius 16.4542
lwrist 3.33817
lhand -26.1934 -4.42804
lfingers 7.12502
lthumb 0.358925 25.5514
rfemur -19.2641 -2.88864 20.2863
rtibia 25.4898
rfoot -11.8578 -1.97169
rtoes 12.3836
lfemur -18.0673 8.63146 -17.8195
ltibia 23.3538
lfoot -9.53457 4.55106
ltoes -3.30869
506
root 0.517223 17.6535 2.32445 7.25807 -0.837554 -1.68478
lowerback 1.70879 -0.0479781 -0.584861
upperback 3.70486 -0.0981777 1.53025
thorax 2.84996 -0.0897205 1.89969
lowerneck -11.583 -0.069378 -1.79157
upperneck 35.2424 -0.166869 1.48565
head 13.9093 -0.11731 0.889459
rclavicle -3.8266e-015 1.82882e-014
rhumerus -28.2583 -16.4064 -77.9153
rradius 24.3938
rwrist 32.2075
rhand -18.9501 -26.574
rfingers 7.12502
rthumb 7.35329 -56.4262
lclavicle -3.8266e-015 1.82882e-014
lhumerus -25.2996 2.2459 85.1176
lradius 16.112
lwrist 2.59986
lhand -26.2079 -4.55928
lfingers 7.12502
lthumb 0.344955 25.4202
rfemur -19.2304 -2.89685 20.2866
rtibia 25.4389
rfoot -11.8509 -2.00167
rtoes 12.3854
lfemur -18.0305 8.61752 -17.8181
ltibia 23.2756
lfoot -9.51936 4.52113
ltoes -3.28588
